<svg xmlns="http://www.w3.org/2000/svg" enable-background="new 0 0 5000 4000" viewBox="0 0 5000 4000" id="happy-robot-face">
  <path fill="#fff" d="M2642.033,3485.182h-284.067c-128.361,0-232.418-104.057-232.418-232.418V2224.958
					c0-128.361,104.057-232.418,232.418-232.418h284.067c128.361,0,232.418,104.057,232.418,232.418v1027.805
					C2874.451,3381.125,2770.394,3485.182,2642.033,3485.182z"></path>
  <path fill="#262525" d="M2642.033,3500.034h-284.066c-66.048,0-128.144-25.721-174.847-72.424
					s-72.424-108.799-72.424-174.847V2224.958c0-66.048,25.721-128.144,72.424-174.847c46.703-46.703,108.798-72.424,174.847-72.424
					h284.066c66.048,0,128.144,25.721,174.847,72.424c46.703,46.703,72.424,108.799,72.424,174.847v1027.805
					c0,66.048-25.721,128.144-72.424,174.847S2708.081,3500.034,2642.033,3500.034z M2357.967,2007.392
					c-119.967,0-217.566,97.599-217.566,217.566v1027.805c0,119.967,97.6,217.567,217.566,217.567h284.066
					c119.967,0,217.567-97.601,217.567-217.567V2224.958c0-119.967-97.601-217.566-217.567-217.566H2357.967z"></path>
  <polygon fill="#262525" points="2125.548 2844.76 2874.451 2584.242 2125.548 2584.242"></polygon>
  <g>
    <path fill="#fff" d="M3611.867,2584.242H1388.134c-388.415,0-693.719-332.243-660.954-719.274
							c64.63-763.412,703.134-1350.145,1469.274-1350.145h607.091c766.141,0,1404.645,586.732,1469.274,1350.143
							C4305.586,2251.999,4000.281,2584.242,3611.867,2584.242z"></path>
    <path fill="#262525" d="M3611.867,2599.093H1388.133c-96.886,0-190.363-19.94-277.834-59.266
							c-84.19-37.852-158.721-91.696-221.521-160.037c-62.8-68.342-110.165-147.148-140.779-234.231
							c-31.807-90.478-43.791-185.303-35.618-281.844c31.573-372.939,200.733-717.792,476.321-971.035
							c275.587-253.242,633.48-392.709,1007.753-392.709h607.091c374.272,0,732.166,139.467,1007.753,392.708
							c275.587,253.242,444.748,598.095,476.32,971.033c8.173,96.542-3.811,191.368-35.617,281.845
							c-30.615,87.084-77.979,165.892-140.78,234.232c-62.8,68.342-137.33,122.186-221.52,160.037
							C3802.23,2579.154,3708.753,2599.093,3611.867,2599.093z M2196.454,529.676c-764.681,0-1389.969,574.589-1454.476,1336.545
							c-15.268,180.342,46.21,360.205,168.671,493.471c122.46,133.267,296.497,209.698,477.484,209.698h2223.733
							c180.986,0,355.022-76.432,477.482-209.697c122.461-133.267,183.939-313.131,168.672-493.474
							c-64.507-761.955-689.796-1336.543-1454.475-1336.543H2196.454z"></path>
    <g>
      <path fill="#fff" d="M2803.544,514.818h-607.091c-523.671,0-987.646,274.172-1249.555,691.46
							c233.656-207.842,558.151-335.624,914.383-335.624h528.527c302.12,0,581.441,91.895,801.857,246.586
							c0.006,0,214.155-142.382,353.008-401.965C3326.391,587.415,3072.884,514.818,2803.544,514.818z"></path>
      <path fill="#262525" d="M946.897,1221.13c-3.409,0-6.819-1.168-9.591-3.513c-5.644-4.774-6.917-12.972-2.987-19.234
							c131.835-210.048,315.765-385.455,531.904-507.257c109.312-61.601,226.086-109.142,347.079-141.302
							c124.465-33.083,253.376-49.858,383.151-49.858h607.092c133.554,0,265.994,17.768,393.643,52.811
							c124.204,34.098,243.642,84.458,354.993,149.683c6.885,4.033,9.353,12.785,5.589,19.82
							c-72.646,135.812-165.925,239.21-231.384,302.036c-37.071,35.58-69.369,62.229-89.936,78.318
							c-11.692,9.147-20.944,15.949-26.647,20.044c-11.867,8.522-13.108,9.413-18.138,9.413c-3.053,0-6.032-0.941-8.532-2.695
							c-224.099-157.275-505.84-243.891-793.325-243.891h-528.526c-342.695,0-663.924,117.86-904.512,331.869
							C953.958,1219.875,950.428,1221.13,946.897,1221.13z M2196.453,529.67c-471.751,0-905.929,222.792-1180.465,600.87
							c36.585-27.561,74.911-53.354,114.633-77.13c69.884-41.829,144.676-77.76,222.299-106.795
							c161.097-60.259,332.134-90.812,508.361-90.812h528.526c149.503,0,296.196,22.192,436.005,65.962
							c132.168,41.377,255.188,101.025,365.837,177.371c17.538-12.562,61.516-45.596,115.225-97.265
							c61.542-59.204,148.384-155.329,217.845-280.988c-218.635-125.138-467.666-191.212-721.174-191.212H2196.453z"></path>
    </g>
    <g>
      <path fill="#262525" d="M4027.906,1601.825L3898.852,1575c-40.236-8.363-78.441,15.1-91.251,51.349
						c-0.012-0.003-42.666,99.076-42.666,261.675c0,162.599,39.682,250.707,39.682,250.707c7.689,38.607,43.16,66.852,84.001,63.782
						l144.119-10.831c95.049-7.143,168.522-86.347,168.522-181.665v-195.1C4201.259,1711.786,4128.878,1622.813,4027.906,1601.825z"></path>
      <path fill="#fff" d="M4084.089,2157.883c-2.801,0-5.633-0.791-8.147-2.445
						c-65.614-43.154-104.786-115.793-104.786-194.307l0.001-195.101c0-27.365,5.521-53.879,16.411-78.807
						c10.549-24.147,25.599-45.636,44.732-63.87c5.937-5.659,15.338-5.433,20.998,0.506c5.658,5.938,5.432,15.339-0.506,20.997
						c-33.489,31.914-51.933,74.947-51.933,121.173l-0.001,195.101c0,68.486,34.17,131.847,91.405,169.491
						c6.853,4.507,8.755,13.716,4.247,20.569C4093.658,2155.529,4088.92,2157.883,4084.089,2157.883z"></path>
    </g>
    <g>
      <path fill="#262525" d="M3668.929,1901.275c-56.263-582.748-612.132-1030.625-1279.125-1030.625h-528.521
					c-356.234,0-680.73,127.791-914.379,335.626c-121.277,193.216-199.268,417.082-219.722,658.69
					c-18.366,216.916,69.497,416.581,218.627,550.228c65.433,22.622,136.803,35.137,211.766,35.137h1935.937
					C3431.662,2450.331,3697.458,2196.712,3668.929,1901.275z"></path>
      <path fill="#fff" d="M1915.326 2153.617c-52.378 0-102.722-15.753-145.589-45.554-41.84-29.087-73.754-69.462-92.292-116.761-5.986-15.273 1.542-32.508 16.816-38.495 15.273-5.987 32.508 1.542 38.495 16.816 29.664 75.683 101.327 124.586 182.571 124.586 81.241 0 152.902-48.903 182.567-124.586 5.986-15.274 23.222-22.803 38.495-16.816 15.274 5.986 22.802 23.221 16.816 38.495-18.539 47.299-50.452 87.674-92.29 116.76C2018.047 2137.864 1967.704 2153.617 1915.326 2153.617zM1682.844 1670.455c-11.865 0-23.072-7.158-27.663-18.872-29.664-75.683-101.327-124.586-182.571-124.586-81.241 0-152.903 48.903-182.566 124.586-5.986 15.273-23.223 22.802-38.495 16.816-15.273-5.986-22.802-23.221-16.816-38.495 18.539-47.299 50.452-87.674 92.29-116.76 42.866-29.802 93.209-45.554 145.587-45.554s102.721 15.752 145.589 45.554c41.839 29.087 73.754 69.462 92.292 116.761 5.986 15.273-1.542 32.508-16.816 38.495C1690.116 1669.794 1686.449 1670.455 1682.844 1670.455zM2618.356 1670.455c-11.865 0-23.071-7.158-27.663-18.872-29.664-75.683-101.327-124.586-182.571-124.586-81.241 0-152.903 48.903-182.567 124.586-5.987 15.273-23.221 22.802-38.495 16.816s-22.802-23.221-16.816-38.495c18.539-47.299 50.452-87.674 92.29-116.76 42.867-29.802 93.21-45.554 145.587-45.554s102.721 15.752 145.588 45.554c41.84 29.087 73.754 69.462 92.293 116.761 5.986 15.273-1.542 32.508-16.815 38.495C2625.629 1669.794 2621.962 1670.455 2618.356 1670.455z"></path>
    </g>
  </g>
</svg>
