<svg xmlns="http://www.w3.org/2000/svg" enable-background="new 0 0 5000 4000" viewBox="0 0 5000 4000" id="ai-chatbot">
  <path fill="#fff" d="M2642.035,3485.182h-284.067c-128.361,0-232.419-104.057-232.419-232.419V2224.956
					c0-128.361,104.057-232.419,232.419-232.419h284.067c128.361,0,232.419,104.057,232.419,232.419v1027.807
					C2874.454,3381.125,2770.397,3485.182,2642.035,3485.182z"></path>
  <path fill="#262525" d="M2642.036,3500.033h-284.067c-66.048,0-128.144-25.721-174.847-72.424
					c-46.704-46.703-72.424-108.798-72.424-174.847V2224.955c0-66.048,25.72-128.144,72.424-174.847
					c46.703-46.703,108.798-72.423,174.847-72.423h284.067c66.049,0,128.144,25.72,174.847,72.423
					c46.703,46.703,72.424,108.799,72.424,174.847v1027.808c0,66.049-25.721,128.144-72.424,174.847
					S2708.084,3500.033,2642.036,3500.033z M2357.968,2007.389c-119.967,0-217.567,97.599-217.567,217.566v1027.808
					c0,119.967,97.601,217.567,217.567,217.567h284.067c119.967,0,217.567-97.601,217.567-217.567V2224.955
					c0-119.967-97.601-217.566-217.567-217.566H2357.968z"></path>
  <polygon fill="#262525" points="2125.549 2844.759 2874.454 2584.24 2125.549 2584.24"></polygon>
  <g>
    <path fill="#262525" d="m694.192 2191.681 229.672 17.26v-653.854l-224.842 46.735c-100.973 20.988-173.354 109.961-173.354 213.092v195.101C525.667 2105.333 599.142 2184.538 694.192 2191.681zM4305.812 2191.681l-229.672 17.26v-653.854l224.843 46.735c100.973 20.988 173.354 109.961 173.354 213.092v195.101C4474.337 2105.333 4400.861 2184.538 4305.812 2191.681z"></path>
    <g>
      <path fill="#fff" d="M3611.871,2584.242H1388.132c-388.416,0-693.721-332.244-660.956-719.276
							c64.63-763.414,703.136-1350.148,1469.279-1350.148h607.093c766.143,0,1404.649,586.734,1469.279,1350.146
							C4305.593,2251.998,4000.287,2584.242,3611.871,2584.242z"></path>
      <path fill="#262525" d="M3611.872,2599.094H1388.132c-96.886,0-190.363-19.94-277.835-59.267
							c-84.19-37.852-158.721-91.696-221.521-160.037c-62.8-68.342-110.166-147.149-140.78-234.232
							c-31.807-90.478-43.791-185.304-35.618-281.845c31.573-372.94,200.733-717.794,476.322-971.037
							c275.588-253.243,633.482-392.71,1007.755-392.71h607.093c374.273,0,732.168,139.466,1007.756,392.71
							c275.588,253.243,444.749,598.096,476.321,971.035c8.173,96.542-3.811,191.368-35.618,281.847
							c-30.614,87.084-77.979,165.892-140.78,234.233c-62.8,68.341-137.331,122.186-221.521,160.037
							C3802.235,2579.154,3708.757,2599.094,3611.872,2599.094z M2196.455,529.67c-764.683,0-1389.973,574.591-1454.479,1336.549
							c-15.268,180.343,46.21,360.206,168.671,493.473s296.497,209.699,477.485,209.699h2223.739
							c180.987,0,355.023-76.433,477.483-209.698c122.462-133.267,183.94-313.132,168.673-493.475
							C4193.521,1104.26,3568.231,529.67,2803.548,529.67H2196.455z"></path>
      <g>
        <path fill="#fff" d="M2803.548,514.818h-607.093c-269.268,0-522.769,72.477-741.132,199.626v0.82
							c3.336,36.091,11.899,72.59,26.266,108.648l84.448,211.946c195.53-104.995,425.146-165.212,669.703-165.212h528.523
							c244.557,0,474.173,60.216,669.703,165.212l84.448-211.946c14.366-36.056,22.929-72.555,26.265-108.645l0.065-0.786
							C3326.367,587.309,3072.842,514.818,2803.548,514.818z"></path>
        <path fill="#262525" d="M3433.966,1050.709c-2.426,0-4.842-0.594-7.026-1.767
							c-199.126-106.926-428.276-163.445-662.677-163.445H2235.74c-234.401,0-463.551,56.519-662.677,163.445
							c-3.729,2.002-8.134,2.32-12.111,0.87c-3.977-1.449-7.146-4.525-8.712-8.457l-84.448-211.946
							c-14.543-36.501-23.714-74.445-27.258-112.778c-0.042-0.455-0.063-0.911-0.063-1.367v-0.82c0-5.286,2.811-10.174,7.379-12.834
							c111.465-64.904,230.915-115.03,355.031-148.984c127.724-34.941,260.142-52.658,393.575-52.658h607.093
							c133.446,0,265.876,17.72,393.611,52.668c124.127,33.96,243.586,84.096,355.059,149.012c4.945,2.88,7.796,8.345,7.328,14.048
							l-0.064,0.786c-0.004,0.051-0.008,0.102-0.013,0.153c-3.545,38.333-12.715,76.276-27.258,112.775l-84.448,211.946
							c-1.566,3.932-4.736,7.008-8.713,8.457C3437.404,1050.412,3435.682,1050.709,3433.966,1050.709z M1471.014,722.53
							c3.792,32.563,11.978,64.775,24.373,95.884l78.326,196.583c199.969-104.204,428.479-159.202,662.028-159.202h528.523
							c233.549,0,462.058,54.998,662.028,159.202l78.326-196.582c12.395-31.107,20.579-63.322,24.372-95.885
							c-220.053-126.206-470.665-192.859-725.441-192.859h-607.093C1941.688,529.67,1691.06,596.332,1471.014,722.53z"></path>
      </g>
      <g>
        <path fill="#262525" d="M3467.973,2450.33H1532.031c-338.147,0-603.94-253.617-575.414-549.055
						c56.266-582.748,612.136-1030.628,1279.124-1030.628h528.523c666.989,0,1222.858,447.88,1279.124,1030.627
						C4071.913,2196.713,3806.12,2450.33,3467.973,2450.33z"></path>
        <path fill="#fff" d="M2119.541 1911.669h-181.857c-38.25 0-69.258-31.008-69.258-69.258v-90.928c0-88.468 71.718-160.186 160.186-160.186 88.469 0 160.186 71.718 160.186 160.186v90.928C2188.798 1880.662 2157.791 1911.669 2119.541 1911.669zM3062.319 1911.669h-181.857c-38.25 0-69.258-31.008-69.258-69.257v-90.929c0-88.468 71.718-160.186 160.186-160.186 88.469 0 160.186 71.718 160.186 160.186v90.929C3131.577 1880.662 3100.569 1911.669 3062.319 1911.669z"></path>
      </g>
    </g>
  </g>
</svg>
