<svg xmlns="http://www.w3.org/2000/svg" enable-background="new 0 0 4000 5000" viewBox="0 0 4000 5000" id="robot-android-head">
  <path fill="#262525" d="M1303.194 4306.992c-4.418 0-8-3.582-8-8v-771.137c0-4.418 3.582-8 8-8s8 3.582 8 8v771.137C1311.194 4303.41 1307.613 4306.992 1303.194 4306.992zM1994.949 4306.992c-4.418 0-8-3.582-8-8v-880.219c0-4.418 3.582-8 8-8s8 3.582 8 8v880.219C2002.949 4303.41 1999.368 4306.992 1994.949 4306.992zM2686.704 4306.992c-4.418 0-8-3.582-8-8V3202.906c0-4.418 3.582-8 8-8s8 3.582 8 8v1096.086C2694.704 4303.41 2691.122 4306.992 2686.704 4306.992zM1764.364 3966.784c-4.418 0-8-3.582-8-8v-607.148c0-4.418 3.582-8 8-8s8 3.582 8 8v607.148C1772.364 3963.202 1768.783 3966.784 1764.364 3966.784zM2225.534 3966.784c-4.418 0-8-3.582-8-8v-693.506c0-4.418 3.582-8 8-8s8 3.582 8 8v693.506C2233.534 3963.202 2229.952 3966.784 2225.534 3966.784zM2456.119 4685c-4.418 0-8-3.582-8-8V3486.413c0-4.418 3.582-8 8-8s8 3.582 8 8V4677C2464.119 4681.418 2460.537 4685 2456.119 4685zM1533.779 4685c-4.418 0-8-3.582-8-8V3655.21c0-4.418 3.582-8 8-8s8 3.582 8 8V4677C1541.779 4681.418 1538.198 4685 1533.779 4685z"></path>
  <g>
    <path fill="#262525" d="M3276.389 1612.664c-1.262 0-2.542-.299-3.734-.93-3.905-2.067-5.396-6.908-3.33-10.813l261.797-494.753c2.066-3.905 6.908-5.396 10.812-3.33 3.905 2.067 5.396 6.908 3.33 10.813l-261.797 494.753C3282.031 1611.116 3279.258 1612.664 3276.389 1612.664zM3315.848 1863.823c-1.262 0-2.542-.299-3.734-.93-3.905-2.066-5.396-6.908-3.33-10.813l155.208-293.318c2.066-3.906 6.908-5.395 10.812-3.33 3.905 2.066 5.396 6.908 3.33 10.813l-155.208 293.318C3321.49 1862.276 3318.717 1863.823 3315.848 1863.823z"></path>
  </g>
  <g>
    <path fill="#262525" d="M1442.085 1098.43c-1.262 0-2.542-.299-3.735-.93-3.905-2.066-5.396-6.908-3.33-10.813l136.197-257.39c2.066-3.905 6.908-5.396 10.813-3.33 3.905 2.067 5.396 6.908 3.33 10.813l-136.197 257.39C1447.728 1096.882 1444.954 1098.43 1442.085 1098.43zM1569.445 1183.47c-1.262 0-2.542-.299-3.735-.93-3.905-2.066-5.396-6.908-3.33-10.813l232.007-438.456c2.067-3.906 6.907-5.396 10.813-3.33 3.905 2.066 5.396 6.908 3.329 10.813l-232.007 438.456C1575.088 1181.922 1572.314 1183.47 1569.445 1183.47z"></path>
  </g>
  <g>
    <path fill="#262525" d="M639.571,2213.168l712.851-1453.707l-8.517,210.701l-178.4,497.815l66.631,307.668
					l-337.959,646.042c-21.668,41.421-77.923,48.685-109.403,14.128l-134.529-147.683
					C631.638,2267.704,627.405,2237.979,639.571,2213.168z"></path>
    <path fill="#262525" d="M834.194,2465.823c-21.062,0-40.82-8.689-55.333-24.621l-134.529-147.683
					c-20.958-23.007-25.646-55.929-11.944-83.873L1345.24,755.939c1.665-3.396,5.482-5.161,9.147-4.233
					c3.667,0.929,6.182,4.299,6.029,8.078l-8.517,210.701c-0.033,0.811-0.189,1.612-0.462,2.375l-177.628,495.661l66.147,305.431
					c0.396,1.831,0.138,3.742-0.73,5.402l-337.959,646.041c-11.555,22.089-32.362,36.589-57.086,39.782
					C840.831,2465.61,837.496,2465.823,834.194,2465.823z M639.571,2213.168l7.183,3.522c-10.791,22.007-7.099,47.935,9.407,66.054
					l134.529,147.683c13.221,14.513,31.971,21.396,51.442,18.881c19.471-2.514,35.858-13.934,44.958-31.33l336.616-643.473
					l-66.018-304.835c-0.316-1.462-0.217-2.984,0.288-4.392l177.987-496.663l6.934-171.558L646.754,2216.69L639.571,2213.168z"></path>
    <path fill="#fff" d="M1628.478,1284.062c-747.03,161.783-1041.281,924.793-1157.073,1517.896
					c-69.005,353.455,244.86,662.547,596.829,586.322l1940.875-420.333c351.968-76.225,509.829-487.479,300.771-780.714
					C2959.076,1695.18,2375.508,1122.278,1628.478,1284.062z"></path>
    <path fill="#262525" d="M960.281,3407.939c-7.244,0-14.469-0.156-21.685-0.469
					c-41.951-1.818-83.569-8.937-123.698-21.154c-77.472-23.589-149.362-66.371-207.898-123.721
					c-58.736-57.547-103.14-128.874-128.41-206.271c-13.08-40.062-21.073-81.721-23.757-123.819
					c-2.788-43.725,0.146-88.162,8.721-132.08c32.398-165.947,74.42-322.652,124.898-465.764
					c60.417-171.286,133.771-325.276,218.026-457.691c97.14-152.665,210.676-279.583,337.457-377.228
					c69.311-53.383,143.898-98.997,221.692-135.575c82.061-38.584,169.927-68.166,261.159-87.924
					c91.232-19.758,183.469-29.185,274.136-28.003c85.957,1.114,172.733,11.782,257.92,31.706
					c155.819,36.443,311.693,105.016,463.291,203.812c131.49,85.691,261.983,195.534,387.853,326.476
					c105.166,109.404,208.257,234.683,306.409,372.356c25.977,36.435,47.033,75.677,62.585,116.637
					c14.975,39.437,24.933,80.67,29.6,122.554c9.017,80.917-1.897,164.225-31.562,240.916
					c-29.563,76.43-77.312,145.122-138.083,198.65c-31.479,27.727-66.423,51.425-103.862,70.438
					c-38.89,19.748-80.699,34.546-124.269,43.981l-1940.875,420.333C1033.572,3403.972,996.781,3407.939,960.281,3407.939z
					 M1628.478,1284.062l1.693,7.819C891.616,1451.829,596.649,2202.186,479.256,2803.491
					c-31.971,163.76,19.969,331.115,138.94,447.675c93.039,91.154,216.366,140.534,343.586,140.538
					c34.812,0.001,69.901-3.695,104.758-11.244l1940.875-420.333c162.241-35.136,294.831-148.483,354.679-303.204
					c60.086-155.338,38.132-329.187-58.728-465.046c-313.478-439.698-800.543-927.787-1417.363-927.787
					c-82.992,0-168.245,8.822-255.831,27.79L1628.478,1284.062z"></path>
    <path fill="#262525" d="M2829.615,2259.55c-310.497-435.521-801.047-822.704-1462.243-679.51
						c-205.003,44.397-373.908,128.487-512.542,238.948c-207.559,297.06-321.249,664.49-383.427,982.967
						c-43.327,221.949,64.345,426.328,237.582,528.881c44.091,4.168,89.924,1.852,136.548-8.245L2563.4,2950.555
						C2874.927,2883.088,3014.652,2519.083,2829.615,2259.55z"></path>
    <path fill="#262525" d="M750.617,3340.799c-14.146,0-28.286-0.665-42.385-1.997c-1.174-0.111-2.309-0.48-3.323-1.081
						c-43.887-25.98-83.634-58.342-118.136-96.185c-34.65-38.007-63.258-80.722-85.029-126.959
						c-46.025-97.749-59.232-206.382-38.194-314.154c35.066-179.61,81.341-348.085,137.54-500.747
						c67.893-184.427,151.057-347.696,247.181-485.27c0.44-0.631,0.97-1.195,1.572-1.675
						c71.541-57.001,149.913-105.861,232.941-145.22c87.685-41.566,182.864-73.626,282.893-95.29
						c305.061-66.064,597.149-24.502,868.162,123.535c116.065,63.4,228.712,146.825,334.809,247.958
						c94.475,90.055,184.468,194.755,267.479,311.192c45.709,64.111,73.216,135.483,81.757,212.133
						c7.997,71.764-1.683,145.648-27.991,213.665c-26.22,67.786-68.568,128.71-122.468,176.187
						c-57.603,50.738-125.678,84.882-202.333,101.482L847.226,3330.409C815.286,3337.327,782.937,3340.799,750.617,3340.799z
						 M711.52,3323.037c44.088,3.982,88.598,1.204,132.32-8.265l1717.868-372.037c143.298-31.033,260.406-131.146,313.266-267.804
						c53.068-137.199,33.678-290.746-51.871-410.737c-240.456-337.276-629.009-706.898-1176.506-706.898
						c-88.371,0-180.828,9.62-277.53,30.563c-192.159,41.615-363.183,121.237-508.344,236.664
						c-175.37,251.365-303.719,580.737-381.467,978.965C438.756,3010.951,529.897,3214.68,711.52,3323.037z"></path>
    <g>
      <path fill="#fff" d="M1028.577,2796.114l-191.31,41.432c-40.794,8.835-81.026-17.073-89.861-57.868l-19.565-90.339
							c-19.833-91.578,33.407-185.872,124.022-209.718c96.185-25.312,193.039,34.81,213.865,130.976l20.716,95.655
							C1095.279,2747.047,1069.371,2787.28,1028.577,2796.114z"></path>
      <path fill="#262525" d="M821.103,2847.287c-15.869,0-31.423-4.541-45.083-13.338
							c-18.769-12.087-31.708-30.759-36.433-52.577l-19.565-90.339c-10.092-46.602-2.456-94.894,21.501-135.981
							c24.28-41.642,62.743-71.177,108.304-83.167c48.466-12.754,98.619-5.392,141.219,20.732
							c42.622,26.138,71.922,67.436,82.502,116.287l20.716,95.655c9.754,45.04-18.953,89.619-63.993,99.373l0,0l-191.311,41.432
							C833.021,2846.651,827.039,2847.287,821.103,2847.287z M896.6,2481.786c-14.208,0-28.53,1.844-42.7,5.573
							c-84.31,22.187-137.352,112.035-118.24,200.288l19.565,90.339c3.82,17.642,14.282,32.739,29.458,42.512
							c15.176,9.773,33.25,13.05,50.891,9.23l191.311-41.432c36.417-7.888,59.629-43.932,51.742-80.35l-20.716-95.655
							c-9.647-44.544-36.364-82.2-75.229-106.034C956.29,2490.073,926.712,2481.786,896.6,2481.786z M1028.577,2796.114h0.01
							H1028.577z"></path>
      <path fill="#fff" d="M1916.623,2603.792l-191.31,41.432c-40.794,8.835-81.026-17.073-89.861-57.868l-19.564-90.339
							c-19.833-91.578,33.407-185.872,124.022-209.718c96.185-25.312,193.039,34.81,213.865,130.976l20.716,95.655
							C1983.325,2554.725,1957.417,2594.957,1916.623,2603.792z"></path>
      <path fill="#262525" d="M1709.3,2654.945c-38.481,0-73.199-26.792-81.668-65.896l-19.564-90.338
							c-10.092-46.601-2.456-94.894,21.501-135.981c24.28-41.641,62.743-71.177,108.304-83.167
							c48.465-12.755,98.619-5.392,141.218,20.732c42.623,26.138,71.922,67.436,82.502,116.287l20.716,95.656
							c4.725,21.818,0.671,44.171-11.416,62.94c-12.087,18.769-30.759,31.708-52.578,36.433l-191.31,41.432
							C1721.071,2654.328,1715.141,2654.945,1709.3,2654.945z M1784.645,2289.463c-14.207,0-28.53,1.844-42.7,5.572
							c-84.31,22.187-137.352,112.036-118.24,200.289l19.564,90.338c7.887,36.417,43.929,59.624,80.35,51.743l191.31-41.432
							l1.693,7.818l-1.693-7.818c17.642-3.821,32.739-14.283,42.512-29.459s13.051-33.249,9.23-50.891l-20.716-95.656
							c-9.646-44.543-36.363-82.2-75.229-106.034C1844.336,2297.75,1814.758,2289.463,1784.645,2289.463z"></path>
      <path fill="#fff" d="M1189.404,2759.829c-3.685,0-6.999-2.561-7.811-6.309c-0.935-4.318,1.807-8.577,6.125-9.512
						l310.333-67.209c4.318-0.94,8.577,1.807,9.512,6.125s-1.808,8.577-6.125,9.512l-310.333,67.209
						C1190.535,2759.77,1189.965,2759.829,1189.404,2759.829z"></path>
    </g>
    <g>
      <path fill="#262525" d="M2973.052,2147.656l3.043,245.387c0.419,33.79,31.707,58.708,64.734,51.556l210.866-45.667
					c42.143-9.127,56.671-61.844,25.154-91.271l-213.909-199.72C3028.558,2075.84,2972.469,2100.622,2973.052,2147.656z"></path>
      <path fill="#262525" d="M3029.437,2453.824c-13.754,0-27.183-4.627-38.186-13.391
					c-14.485-11.537-22.925-28.773-23.154-47.29l-3.043-245.387l0,0c-0.311-25.017,13.713-46.839,36.598-56.951
					c22.883-10.111,48.46-5.786,66.748,11.289l213.909,199.72c17.018,15.89,23.485,38.776,17.299,61.222
					c-6.186,22.446-23.464,38.788-46.219,43.716l-210.866,45.667C3038.172,2453.36,3033.788,2453.824,3029.437,2453.824z
					 M2981.052,2147.558l3.043,245.387c0.17,13.693,6.411,26.44,17.124,34.972c10.713,8.532,24.535,11.76,37.917,8.864
					l210.866-45.667c16.828-3.645,29.606-15.73,34.181-32.33c4.575-16.599-0.208-33.525-12.794-45.275l-213.909-199.72
					c-13.523-12.627-32.438-15.826-49.361-8.349C2991.193,2112.918,2980.823,2129.056,2981.052,2147.558z"></path>
    </g>
    <g>
      <path fill="#262525" d="M2454.36,1571.661c-3.685,0-6.999-2.561-7.811-6.308l-150.121-693.181
					c-0.936-4.318,1.807-8.577,6.125-9.512c4.32-0.937,8.577,1.808,9.512,6.125l150.121,693.181
					c0.936,4.318-1.807,8.577-6.125,9.512C2455.491,1571.602,2454.921,1571.661,2454.36,1571.661z"></path>
      <circle cx="2304.247" cy="870.479" r="85.052" fill="#262525"></circle>
      <path fill="#262525" d="M2304.062,963.562c-17.668,0-34.986-5.057-50.195-14.85
						c-20.897-13.457-35.303-34.247-40.562-58.538c-10.86-50.146,21.101-99.779,71.247-110.64
						c24.29-5.261,49.179-0.747,70.075,12.71c20.897,13.457,35.303,34.247,40.563,58.538l0,0
						c10.86,50.146-21.101,99.779-71.247,110.64C2317.331,962.854,2310.671,963.562,2304.062,963.562z M2304.263,793.417
						c-5.387,0-10.85,0.569-16.324,1.755c-41.523,8.993-67.989,50.091-58.997,91.615c4.356,20.115,16.285,37.33,33.589,48.473
						s37.915,14.88,58.026,10.524c41.523-8.993,67.989-50.091,58.997-91.615C2371.746,818.12,2339.736,793.417,2304.263,793.417z"></path>
    </g>
    <g>
      <path fill="#262525" d="M2654.922,1776.707L3367.773,323l-8.517,210.701l-178.399,497.815l66.631,307.668
						l-337.959,646.042c-21.668,41.421-77.923,48.685-109.403,14.128l-134.529-147.683
						C2646.989,1831.243,2642.756,1801.517,2654.922,1776.707z"></path>
      <path fill="#262525" d="M2849.545,2029.362c-21.062,0-40.82-8.689-55.333-24.621l-134.529-147.683
						c-20.958-23.007-25.646-55.929-11.943-83.873L3360.59,319.478c1.664-3.396,5.479-5.164,9.147-4.233
						c3.667,0.929,6.182,4.299,6.028,8.078l-8.517,210.701c-0.032,0.811-0.188,1.612-0.462,2.375l-177.627,495.661l66.146,305.43
						c0.396,1.831,0.139,3.742-0.729,5.402l-337.959,646.042c-11.556,22.089-32.362,36.589-57.086,39.782
						C2856.182,2029.148,2852.847,2029.362,2849.545,2029.362z M2654.922,1776.707l7.183,3.522
						c-10.791,22.007-7.1,47.935,9.406,66.054l134.529,147.683c13.222,14.515,31.976,21.394,51.442,18.881
						c19.471-2.514,35.857-13.934,44.957-31.33l336.615-643.474l-66.017-304.834c-0.317-1.462-0.218-2.984,0.287-4.392
						l177.986-496.663l6.935-171.558l-696.142,1419.632L2654.922,1776.707z"></path>
      <g>
        <ellipse cx="2768.898" cy="1863.65" fill="#fff" rx="187.114" ry="229.64" transform="rotate(-37.389 2769.128 1863.756)"></ellipse>
        <path fill="#262525" d="M2809.113,2086.677c-15.819,0-32.094-1.947-48.593-5.889
							c-56.202-13.427-108.282-48.464-146.645-98.657s-58.499-109.644-56.701-167.4c1.817-58.372,25.76-108.052,67.418-139.89
							c41.656-31.839,95.88-41.9,152.682-28.33c56.199,13.426,108.283,48.469,146.645,98.657l0,0
							c38.362,50.193,58.499,109.644,56.701,167.4c-1.817,58.371-25.76,108.052-67.417,139.89
							C2883.646,2075.049,2847.755,2086.676,2809.113,2086.677z M2728.761,1656.637c-35.185,0-67.742,10.502-94.452,30.917
							c-37.763,28.862-59.477,74.205-61.142,127.676c-1.684,54.086,17.288,109.91,53.422,157.186
							c48.371,63.289,117.994,98.159,182.338,98.162c34.374,0.001,67.236-9.948,94.56-30.831
							c78.47-59.974,81.933-187.763,7.72-284.862l0,0c-36.132-47.276-85.018-80.237-137.649-92.811
							C2758.328,1658.435,2743.318,1656.637,2728.761,1656.637z"></path>
        <g>
          <ellipse cx="2774.031" cy="1859.726" fill="#262525" rx="138.771" ry="178.24" transform="rotate(-37.389 2774.262 1859.832)"></ellipse>
          <path fill="#262525" d="M2810.982,2032.592c-13.081,0-26.63-1.788-40.41-5.405
							c-42.981-11.281-83.166-39.101-113.153-78.335c-29.986-39.234-46.281-85.313-45.884-129.748
							c0.405-45.185,17.95-83.309,49.403-107.349c31.454-24.041,72.85-30.961,116.553-19.491
							c42.979,11.28,83.166,39.105,113.152,78.335l0,0c29.986,39.234,46.282,85.312,45.884,129.748
							c-0.404,45.185-17.949,83.309-49.402,107.349C2865.588,2024.157,2839.39,2032.592,2810.982,2032.592z M2737.163,1702.877
							c-24.952,0-47.824,7.311-66.508,21.59c-57.291,43.787-57.525,140.086-0.523,214.668c37.981,49.695,91.946,77.4,140.675,77.403
							c24.402,0.001,47.485-6.944,66.602-21.555c27.447-20.978,42.761-54.638,43.12-94.78c0.366-40.893-14.762-83.47-42.598-119.889
							l0,0c-27.835-36.419-64.947-62.194-104.501-72.575C2761.033,1704.487,2748.866,1702.877,2737.163,1702.877z"></path>
        </g>
      </g>
    </g>
  </g>
</svg>
