<svg xmlns="http://www.w3.org/2000/svg" enable-background="new 0 0 5500 4000" viewBox="0 0 5500 4000" id="android-robot-head">
  <polygon fill="#262525" points="4923.383 2170.592 4635.615 2170.592 3949.564 785.509 4237.333 785.509"></polygon>
  <path fill="#262525" d="M4923.383,2178.593h-287.768c-3.041,0-5.819-1.725-7.169-4.449L3942.396,789.06
				c-1.229-2.479-1.088-5.418,0.372-7.77c1.459-2.351,4.029-3.781,6.797-3.781h287.769c3.041,0,5.819,1.724,7.169,4.449
				l686.05,1385.083c1.229,2.479,1.088,5.418-0.372,7.77C4928.721,2177.162,4926.15,2178.593,4923.383,2178.593z M4640.58,2162.593
				h269.913L4232.368,793.509h-269.914L4640.58,2162.593z"></path>
  <path fill="#fff" d="M811.79,2413.29c0,668.062,1027.926,1102.007,2104.145,1102.007
				s2104.144-433.946,2104.144-1102.007S3992.153,785.074,2915.934,785.074S811.79,1745.228,811.79,2413.29z"></path>
  <path fill="#262525" d="M2915.935,3523.297c-133.511,0-268.159-6.726-400.205-19.991
				c-130.78-13.138-260.048-32.792-384.215-58.416c-124.223-25.637-244.267-57.439-356.797-94.527
				c-113.731-37.483-220.708-80.671-317.96-128.363c-99.226-48.659-189.294-102.489-267.703-159.994
				c-80.664-59.158-149.958-122.929-205.959-189.54c-118.979-141.521-179.306-296.01-179.306-459.175
				c0-82.899,15.707-171.826,46.685-264.311c30.1-89.862,74.487-182.765,131.931-276.129
				c114.355-185.863,277.839-369.258,472.779-530.358c99.642-82.345,206.601-158.126,317.907-225.24
				c115.417-69.593,235.541-129.86,357.034-179.129c127.188-51.578,256.639-91.385,384.759-118.316
				c134.893-28.355,269.825-42.733,401.05-42.733s266.158,14.377,401.051,42.733c128.119,26.932,257.57,66.739,384.758,118.316
				c121.493,49.269,241.616,109.536,357.034,179.129c111.307,67.114,218.266,142.895,317.907,225.24
				c194.939,161.1,358.424,344.495,472.779,530.358c57.442,93.364,101.831,186.267,131.931,276.129
				c30.978,92.484,46.685,181.411,46.685,264.311c0,163.165-60.327,317.654-179.306,459.175
				c-56.001,66.611-125.296,130.382-205.959,189.54c-78.41,57.505-168.479,111.335-267.703,159.994
				c-97.253,47.692-204.23,90.88-317.961,128.363c-112.53,37.088-232.574,68.891-356.797,94.527
				c-124.166,25.624-253.435,45.278-384.215,58.416C3184.093,3516.571,3049.445,3523.297,2915.935,3523.297z M2915.935,793.074
				c-489.859,0-1018.567,204.751-1450.559,561.752C1067.164,1683.911,819.79,2089.491,819.79,2413.29
				c0,308.58,228.715,590.684,644.013,794.344c388.34,190.44,917.623,299.663,1452.132,299.663s1063.791-109.223,1452.132-299.663
				c415.298-203.66,644.013-485.764,644.013-794.344c0-323.799-247.375-729.378-645.587-1058.464
				C3934.501,997.825,3405.794,793.074,2915.935,793.074z"></path>
  <path fill="#262525" d="M1710.413,2339.933c0,481.797,741.326,794.752,1517.481,794.752
					s1517.481-312.956,1517.481-794.752s-741.327-1174.247-1517.481-1174.247S1710.413,1858.136,1710.413,2339.933z"></path>
  <path fill="#262525" d="M3227.894,3142.686c-193.716,0-384.201-19.04-566.163-56.593
					c-182.164-37.594-346.067-91.737-487.157-160.927c-146.684-71.934-261.858-156.937-342.324-252.647
					c-86.153-102.476-129.836-214.374-129.836-332.586c0-118.426,44.658-253.605,129.146-390.926
					c82.598-134.249,200.666-266.701,341.44-383.038c71.945-59.456,149.173-114.173,229.54-162.631
					c83.337-50.25,170.075-93.767,257.802-129.342c91.849-37.247,185.334-65.995,277.862-85.444
					c97.433-20.481,194.898-30.866,289.69-30.866s192.258,10.385,289.691,30.866c92.527,19.45,186.013,48.198,277.861,85.444
					c87.728,35.575,174.465,79.092,257.802,129.342c80.367,48.458,157.595,103.175,229.54,162.631
					c140.773,116.337,258.842,248.79,341.44,383.038c84.487,137.321,129.146,272.5,129.146,390.926
					c0,118.212-43.684,230.11-129.836,332.586c-80.466,95.711-195.64,180.714-342.324,252.647
					c-141.09,69.189-304.993,123.333-487.157,160.927C3612.095,3123.646,3421.609,3142.686,3227.894,3142.686z M3227.894,1173.686
					c-352.77,0-733.549,147.477-1044.702,404.616c-286.686,236.92-464.779,528.76-464.779,761.631
					c0,221.647,164.502,424.386,463.205,570.867c279.771,137.198,661.123,215.886,1046.275,215.886s766.506-78.688,1046.275-215.886
					c298.702-146.481,463.205-349.22,463.205-570.867c0-232.871-178.093-524.711-464.778-761.631
					C3961.442,1321.163,3580.663,1173.686,3227.894,1173.686z"></path>
  <path fill="#fff" d="M4029.944,2558.024h293.291c62.54,0,113.239-50.699,113.239-113.239v-79.124
					c0-140.394-107.868-261.592-248.126-267.775c-148.88-6.562-271.643,112.194-271.643,259.624v87.275
					C3916.705,2507.326,3967.404,2558.024,4029.944,2558.024z"></path>
  <path fill="#262525" d="M4323.235,2566.024h-293.291c-66.852,0-121.239-54.388-121.239-121.239v-87.274
					c0-37.203,7.484-73.218,22.244-107.043c14.256-32.669,34.598-61.782,60.461-86.529c25.83-24.718,55.765-43.731,88.972-56.514
					c34.496-13.28,70.936-19.178,108.318-17.53c69.457,3.062,134.167,33.656,182.209,86.148
					c47.438,51.834,73.564,119.175,73.564,189.618v79.124C4444.474,2511.637,4390.086,2566.024,4323.235,2566.024z
					 M4176.479,2105.625c-65.254,0-126.663,24.569-174.008,69.873c-50.148,47.986-77.767,112.627-77.767,182.013v87.274
					c0,58.029,47.21,105.239,105.239,105.239h293.291c58.028,0,105.238-47.21,105.238-105.239v-79.124
					c0-137.4-107.878-253.938-240.479-259.782C4184.147,2105.709,4180.304,2105.625,4176.479,2105.625z"></path>
  <g>
    <path fill="#fff" d="M2621.251,2558.024h293.291c62.54,0,113.239-50.699,113.239-113.239v-79.124
					c0-140.394-107.868-261.592-248.126-267.775c-148.88-6.562-271.643,112.194-271.643,259.624v87.275
					C2508.013,2507.326,2558.711,2558.024,2621.251,2558.024z"></path>
    <path fill="#262525" d="M2914.542,2566.024h-293.291c-66.851,0-121.239-54.388-121.239-121.239v-87.274
					c0-37.203,7.484-73.218,22.244-107.043c14.256-32.669,34.598-61.782,60.46-86.53c25.831-24.717,55.765-43.73,88.972-56.513
					c34.498-13.279,70.936-19.174,108.319-17.53c69.457,3.062,134.167,33.656,182.209,86.148
					c47.438,51.834,73.564,119.175,73.564,189.618v79.124C3035.781,2511.637,2981.394,2566.024,2914.542,2566.024z
					 M2767.787,2105.625c-65.254,0-126.663,24.569-174.008,69.873c-50.148,47.986-77.767,112.627-77.767,182.013v87.274
					c0,58.029,47.21,105.239,105.239,105.239h293.291c58.029,0,105.239-47.21,105.239-105.239v-79.124
					c0-137.4-107.878-253.938-240.479-259.782C2775.455,2105.709,2771.611,2105.625,2767.787,2105.625z"></path>
  </g>
  <path fill="#262525" d="M3289.949,1175.182c-2.997,0-5.869-1.691-7.236-4.579
			c-48.551-102.564-117.089-191.738-203.711-265.044l-134.641-113.942c-3.373-2.854-3.793-7.902-0.938-11.275
			c2.854-3.372,7.902-3.792,11.274-0.939l134.641,113.942c43.953,37.197,83.988,79.209,118.991,124.869
			c34.606,45.143,64.498,94.11,88.845,145.543c1.891,3.994,0.186,8.763-3.808,10.654
			C3292.261,1174.934,3291.096,1175.182,3289.949,1175.182z"></path>
  <g>
    <path fill="#fff" d="M1422.819,2051.453l222.706,385.739c43.146,74.732-10.786,168.146-97.079,168.146h-445.413
						c-86.293,0-140.226-93.415-97.079-168.146l222.707-385.739C1271.807,1976.721,1379.673,1976.721,1422.819,2051.453z"></path>
    <path fill="#262525" d="M1548.446,2613.338h-445.413c-43.417,0-82.299-22.448-104.007-60.049
						c-21.709-37.601-21.709-82.497,0-120.098l222.707-385.738c21.709-37.601,60.59-60.049,104.008-60.049
						c43.417,0,82.298,22.448,104.007,60.049l222.707,385.738c21.708,37.601,21.709,82.497,0,120.098
						S1591.864,2613.338,1548.446,2613.338z M1325.74,2003.404c-37.633,0-71.335,19.457-90.151,52.049l-222.707,385.738
						c-18.816,32.592-18.816,71.506,0,104.098c18.817,32.592,52.518,52.049,90.151,52.049h445.413
						c37.633,0,71.335-19.458,90.151-52.049c18.817-32.592,18.817-71.507,0-104.098l-222.707-385.738l0,0
						C1397.074,2022.861,1363.373,2003.404,1325.74,2003.404z"></path>
    <g>
      <path fill="#262525" d="M1332.883,2051.453l222.707,385.739c43.146,74.732-10.787,168.146-97.079,168.146h-445.413
						c-86.293,0-140.226-93.415-97.079-168.146l222.707-385.739C1181.87,1976.721,1289.736,1976.721,1332.883,2051.453z"></path>
      <path fill="#262525" d="M1458.51,2613.338h-445.413c-43.417,0-82.299-22.448-104.007-60.049
						c-21.709-37.601-21.709-82.497,0-120.098l222.707-385.738c21.709-37.601,60.59-60.049,104.007-60.049
						c43.417,0,82.299,22.448,104.008,60.049l222.707,385.738c21.708,37.601,21.708,82.497,0,120.098
						C1540.809,2590.89,1501.927,2613.338,1458.51,2613.338z M1235.803,2003.404c-37.633,0-71.334,19.457-90.151,52.049
						l-222.707,385.738c-18.817,32.591-18.817,71.506,0,104.098c18.816,32.591,52.518,52.049,90.151,52.049h445.413
						c37.633,0,71.334-19.457,90.151-52.049c18.816-32.592,18.816-71.506,0-104.098l-222.707-385.738l0,0
						C1307.138,2022.861,1273.437,2003.404,1235.803,2003.404z"></path>
    </g>
    <g>
      <polygon fill="#262525" points="1325.74 2387.979 1037.972 2387.979 351.921 1002.896 639.69 1002.896"></polygon>
      <path fill="#262525" d="M1325.74,2395.979h-287.769c-3.041,0-5.819-1.724-7.169-4.449l-686.05-1385.083
					c-1.228-2.479-1.087-5.418,0.372-7.77c1.459-2.351,4.03-3.781,6.797-3.781h287.768c3.041,0,5.819,1.724,7.169,4.449
					l686.051,1385.083c1.228,2.479,1.088,5.418-0.372,7.77S1328.507,2395.979,1325.74,2395.979z M1042.937,2379.979h269.913
					L634.724,1010.896H364.812L1042.937,2379.979z"></path>
    </g>
  </g>
</svg>
