<svg xmlns="http://www.w3.org/2000/svg" enable-background="new 0 0 5000 4000" viewBox="0 0 5000 4000" id="smiling-humanoid-robot">
  <path fill="#fff" d="M2642.033,3485.182h-284.067c-128.361,0-232.419-104.057-232.419-232.419V2224.956
					c0-128.361,104.057-232.419,232.419-232.419h284.067c128.361,0,232.419,104.057,232.419,232.419v1027.807
					C2874.452,3381.125,2770.395,3485.182,2642.033,3485.182z"></path>
  <path fill="#262525" d="M2642.033,3500.034h-284.067c-66.048,0-128.144-25.721-174.847-72.424
					s-72.424-108.798-72.424-174.847V2224.956c0-66.048,25.721-128.144,72.424-174.847c46.703-46.703,108.798-72.424,174.847-72.424
					h284.067c66.048,0,128.144,25.721,174.847,72.424c46.703,46.703,72.424,108.799,72.424,174.847v1027.808
					c0,66.049-25.721,128.144-72.424,174.847S2708.081,3500.034,2642.033,3500.034z M2357.966,2007.389
					c-119.967,0-217.567,97.599-217.567,217.566v1027.808c0,119.967,97.601,217.567,217.567,217.567h284.067
					c119.967,0,217.567-97.601,217.567-217.567V2224.956c0-119.967-97.601-217.566-217.567-217.566H2357.966z"></path>
  <polygon fill="#262525" points="2125.547 2844.759 2874.452 2584.24 2125.547 2584.24"></polygon>
  <g>
    <path fill="#262525" d="m694.192 2191.68 229.671 17.26v-653.854l-224.842 46.735c-100.973 20.988-173.354 109.961-173.354 213.092v195.101C525.667 2105.332 599.142 2184.537 694.192 2191.68zM4305.808 2191.68l-229.671 17.26v-653.854l224.842 46.735c100.973 20.988 173.354 109.961 173.354 213.092v195.101C4474.333 2105.332 4400.858 2184.537 4305.808 2191.68z"></path>
    <g>
      <path fill="#fff" d="M3611.869,2584.24H1388.131c-388.416,0-693.721-332.244-660.955-719.275
							c64.63-763.413,703.135-1350.147,1469.277-1350.147h607.092c766.143,0,1404.647,586.734,1469.277,1350.145
							C4305.589,2251.996,4000.284,2584.24,3611.869,2584.24z"></path>
      <path fill="#262525" d="M3611.869,2599.092H1388.131c-96.886,0-190.363-19.94-277.835-59.267
							c-84.19-37.851-158.721-91.695-221.521-160.037c-62.8-68.341-110.166-147.148-140.779-234.231
							c-31.808-90.478-43.791-185.304-35.618-281.845c31.573-372.939,200.733-717.794,476.321-971.037
							c275.587-253.243,633.482-392.709,1007.755-392.709h607.093c374.272,0,732.167,139.466,1007.754,392.709
							c275.588,253.243,444.749,598.096,476.322,971.035c8.173,96.542-3.811,191.369-35.618,281.846
							c-30.614,87.084-77.979,165.892-140.78,234.233c-62.8,68.341-137.331,122.186-221.521,160.037
							C3802.232,2579.152,3708.755,2599.092,3611.869,2599.092z M2196.454,529.67c-764.682,0-1389.972,574.591-1454.479,1336.548
							c-15.268,180.343,46.211,360.206,168.671,493.473c122.461,133.266,296.498,209.698,477.485,209.698h2223.737
							c180.987,0,355.023-76.433,477.483-209.698c122.462-133.267,183.94-313.132,168.673-493.475
							C4193.517,1104.26,3568.227,529.67,2803.547,529.67H2196.454z"></path>
      <g>
        <path fill="#fff" d="M2803.551,514.821H2196.46c-269.34,0-522.743,72.747-741.133,199.949
							c3.334,36.583,11.9,73.083,26.267,109.143l84.453,211.962c195.905-104.889,425.269-165.228,669.687-165.228h528.528
							c244.433,0,473.781,60.338,669.238,165.235c0.448,0,84.916-211.969,84.916-211.969c14.367-36.06,22.918-72.56,26.267-108.649
							C3326.309,587.576,3072.891,514.821,2803.551,514.821z"></path>
        <path fill="#262525" d="M3433.501,1050.734c-2.451,0-4.863-0.606-7.023-1.765
							c-199.269-106.943-428.26-163.47-662.215-163.47h-528.528c-233.787,0-462.937,56.526-662.677,163.469
							c-3.728,1.996-8.131,2.309-12.104,0.858c-3.972-1.45-7.139-4.525-8.704-8.454l-84.453-211.962
							c-14.571-36.571-23.743-74.688-27.261-113.292c-0.523-5.747,2.329-11.277,7.315-14.182
							c111.555-64.976,230.997-115.162,355.008-149.165c127.782-35.037,260.209-52.803,393.6-52.803h607.09
							c133.472,0,265.902,17.788,393.612,52.869c124.097,34.088,243.542,84.423,355.018,149.604
							c4.981,2.913,7.824,8.447,7.291,14.193c-3.561,38.372-12.731,76.315-27.258,112.774c0,0-21.119,53-42.295,105.998
							c-12.297,30.776-22.114,55.3-29.179,72.89c-4,9.957-7.343,18.254-9.7,24.062c-1.194,2.941-2.138,5.251-2.791,6.827
							c-0.357,0.862-0.635,1.523-0.827,1.969C3443.589,1050.044,3435.798,1050.734,3433.501,1050.734z M2235.734,855.795h528.528
							c121.036,0,241.015,14.712,356.602,43.728c106.735,26.794,209.303,65.654,305.117,115.582
							c14.507-35.932,52.166-130.256,78.639-196.689c12.286-30.836,20.44-62.797,24.282-95.138
							c-220.012-126.695-470.589-193.604-725.352-193.604h-607.09c-254.457,0-505.042,66.749-725.365,193.137
							c3.81,32.545,11.969,64.664,24.296,95.605l78.338,196.614c96.002-49.902,198.646-88.736,305.354-115.508
							C1994.731,870.507,2114.725,855.795,2235.734,855.795z"></path>
      </g>
    </g>
    <g>
      <path fill="#262525" d="M3467.97,2450.328H1532.03c-338.147,0-603.939-253.617-575.414-549.055
					c56.266-582.748,612.135-1030.628,1279.123-1030.628h528.522c666.988,0,1222.857,447.88,1279.123,1030.626
					C4071.91,2196.711,3806.117,2450.328,3467.97,2450.328z"></path>
      <path fill="#fff" d="M2500.002 2156.377c-52.944 0-103.833-15.924-147.167-46.049-42.29-29.4-74.549-70.211-93.288-118.02-6.543-16.694 1.686-35.532 18.38-42.075 16.695-6.542 35.532 1.686 42.075 18.38 29.247 74.617 99.9 122.831 179.999 122.831 80.097 0 150.748-48.214 179.994-122.831 6.543-16.693 25.381-24.922 42.075-18.38 16.694 6.543 24.923 25.381 18.38 42.075-18.738 47.81-50.996 88.62-93.284 118.02C2603.835 2140.454 2552.946 2156.377 2500.002 2156.377zM2119.54 1690.737h-181.857c-38.25 0-69.257-31.008-69.257-69.257v-181.857c0-38.25 31.008-69.257 69.257-69.257h181.857c38.25 0 69.257 31.008 69.257 69.257v181.857C2188.797 1659.729 2157.789 1690.737 2119.54 1690.737zM3062.317 1690.737H2880.46c-38.25 0-69.257-31.008-69.257-69.257v-181.857c0-38.25 31.008-69.257 69.257-69.257h181.857c38.25 0 69.258 31.008 69.258 69.257v181.857C3131.575 1659.729 3100.567 1690.737 3062.317 1690.737z"></path>
    </g>
  </g>
</svg>
