<svg xmlns="http://www.w3.org/2000/svg" enable-background="new 0 0 5000 4000" viewBox="0 0 5000 4000" id="confused-robot-face">
  <path fill="#fff" d="M2357.967,3485.182h284.067c128.361,0,232.419-104.057,232.419-232.418V2224.958
					c0-128.361-104.057-232.418-232.419-232.418h-284.067c-128.361,0-232.418,104.057-232.418,232.418v1027.806
					C2125.548,3381.125,2229.606,3485.182,2357.967,3485.182z"></path>
  <path fill="#262525" d="M2642.034,3500.033h-284.067c-66.048,0-128.144-25.721-174.847-72.423
					c-46.703-46.703-72.424-108.798-72.424-174.847V2224.958c0-66.048,25.721-128.144,72.424-174.847s108.798-72.423,174.847-72.423
					h284.067c66.048,0,128.143,25.72,174.846,72.423c46.703,46.704,72.424,108.798,72.424,174.847v1027.806
					c0,66.048-25.721,128.144-72.424,174.847C2770.177,3474.313,2708.082,3500.033,2642.034,3500.033z M2357.967,2007.391
					c-119.967,0-217.566,97.6-217.566,217.567v1027.806c0,119.967,97.6,217.566,217.566,217.566h284.067
					c119.967,0,217.566-97.6,217.566-217.566V2224.958c0-119.967-97.6-217.567-217.566-217.567H2357.967z"></path>
  <polygon fill="#262525" points="2874.452 2844.76 2125.548 2584.242 2874.452 2584.242"></polygon>
  <g>
    <path fill="#fff" d="M1388.132,2584.242h2223.735c388.415,0,693.72-332.244,660.954-719.275
							c-64.63-763.413-703.134-1350.146-1469.276-1350.146h-607.092c-766.142,0-1404.646,586.733-1469.276,1350.144
							C694.412,2251.998,999.717,2584.242,1388.132,2584.242z"></path>
    <path fill="#262525" d="M3611.867,2599.094H1388.132c-96.886,0-190.363-19.94-277.834-59.266
							c-84.19-37.852-158.721-91.696-221.521-160.038c-62.8-68.341-110.166-147.149-140.78-234.233
							c-31.808-90.478-43.791-185.304-35.618-281.845c31.573-372.938,200.733-717.792,476.321-971.034
							S1822.182,499.97,2196.454,499.97h607.092c374.272,0,732.167,139.466,1007.754,392.709
							c275.587,253.242,444.748,598.096,476.321,971.035c8.173,96.541-3.811,191.367-35.618,281.844
							c-30.614,87.083-77.979,165.891-140.779,234.232c-62.8,68.342-137.331,122.187-221.521,160.037
							C3802.23,2579.153,3708.753,2599.094,3611.867,2599.094z M2196.454,529.674c-764.681,0-1389.97,574.589-1454.477,1336.544
							c-15.268,180.343,46.21,360.208,168.671,493.474c122.46,133.266,296.497,209.698,477.484,209.698h2223.735
							c180.987,0,355.023-76.433,477.484-209.698c122.461-133.266,183.939-313.13,168.672-493.472
							c-64.508-761.957-689.797-1336.546-1454.478-1336.546H2196.454z"></path>
    <g>
      <path fill="#fff" d="M4053.097,1206.268c-261.91-417.288-725.885-691.45-1249.55-691.45h-607.095
							c-269.287,0-522.752,72.573-741.127,199.737c138.856,260.296,353.006,402.689,353.006,402.689
							c220.877-154.562,499.875-246.596,801.866-246.596h528.521C3494.952,870.647,3819.447,998.441,4053.097,1206.268
							L4053.097,1206.268z"></path>
      <path fill="#262525" d="M4053.099,1221.121c-3.532,0-7.061-1.254-9.872-3.755
							c-240.598-214.008-561.825-331.867-904.508-331.867h-528.521c-286.825,0-568.576,86.624-793.352,243.914
							c-5.007,3.504-11.649,3.583-16.739,0.199c-2.231-1.484-55.462-37.121-126.5-105.394
							c-65.459-62.912-158.739-166.491-231.386-302.673c-3.759-7.047-1.271-15.805,5.63-19.824
							c111.499-64.928,230.946-115.074,355.023-149.045c127.745-34.975,260.164-52.709,393.578-52.709h607.094
							c129.774,0,258.684,16.774,383.148,49.856c120.992,32.16,237.766,79.7,347.077,141.299
							c216.14,121.8,400.068,297.205,531.904,507.252c3.93,6.261,2.657,14.459-2.987,19.234
							C4059.918,1219.952,4056.507,1221.121,4053.099,1221.121z M2610.197,855.795h528.521c176.224,0,347.261,30.556,508.361,90.817
							c77.621,29.036,152.413,64.966,222.297,106.795c39.723,23.775,78.049,49.57,114.634,77.129
							C3709.478,752.463,3275.297,529.67,2803.547,529.67h-607.094c-253.017,0-502.042,65.836-721.169,190.532
							c69.6,126.25,156.659,222.702,218.354,282.068c53.381,51.366,97.214,84.319,114.726,96.874
							c110.946-76.338,234.037-135.975,366.042-177.332C2314.228,878.006,2460.849,855.795,2610.197,855.795z"></path>
    </g>
    <g>
      <path fill="#262525" d="M1235.065,1888.023c0-162.599-42.654-261.678-42.654-261.678
						c-12.823-36.245-51.029-59.709-91.263-51.346l-129.055,26.825c-100.973,20.988-173.355,109.961-173.355,213.092v195.101
						c0,95.318,73.475,174.522,168.525,181.665l144.117,10.831c40.844,3.07,76.315-25.176,83.975-63.781
						C1195.383,2138.73,1235.065,2050.622,1235.065,1888.023z"></path>
      <path fill="#fff" d="M915.911,2157.882c-4.831,0-9.569-2.354-12.422-6.692c-4.507-6.853-2.605-16.063,4.248-20.57
						c57.235-37.643,91.405-101.003,91.405-169.49v-195.101c0-46.227-18.443-89.26-51.933-121.173
						c-5.938-5.659-6.165-15.06-0.506-20.998s15.06-6.165,20.998-0.506c19.134,18.233,34.185,39.723,44.734,63.87
						c10.89,24.927,16.411,51.441,16.411,78.807v195.101c0,78.516-39.172,151.154-104.786,194.308
						C921.543,2157.091,918.711,2157.882,915.911,2157.882z"></path>
    </g>
    <g>
      <path fill="#262525" d="M1331.07,1901.274c56.263-582.748,612.133-1030.626,1279.125-1030.626h528.521
					c356.234,0,680.731,127.791,914.38,335.626c121.277,193.216,199.268,417.082,219.722,658.691
					c18.367,216.916-69.497,416.582-218.627,550.228c-65.433,22.622-136.803,35.137-211.766,35.137H1906.487
					C1568.337,2450.33,1302.541,2196.711,1331.07,1901.274z"></path>
      <path fill="#fff" d="M2874.421 2172.739c-13.86 0-26.257-9.75-29.091-23.861-3.23-16.083 7.189-31.741 23.273-34.971l420.448-84.441c16.084-3.236 31.74 7.189 34.971 23.273 3.23 16.083-7.189 31.741-23.273 34.971l-420.448 84.441C2878.328 2172.548 2876.358 2172.739 2874.421 2172.739zM3436.461 1749.532h181.856c38.25 0 69.257-31.008 69.257-69.257v-181.857c0-38.25-31.008-69.257-69.257-69.257h-181.856c-38.25 0-69.258 31.008-69.258 69.257v181.857C3367.203 1718.525 3398.211 1749.532 3436.461 1749.532zM2493.684 1749.532h181.856c38.25 0 69.257-31.008 69.257-69.257v-181.857c0-38.25-31.008-69.257-69.257-69.257h-181.856c-38.25 0-69.257 31.008-69.257 69.257v181.857C2424.427 1718.525 2455.434 1749.532 2493.684 1749.532z"></path>
      <path fill="#fff" d="M2791.632 1469.841c-3.732 0-7.527-.708-11.197-2.204l-397.375-161.914c-15.192-6.19-22.49-23.524-16.299-38.716 6.19-15.192 23.521-22.492 38.716-16.299l397.375 161.914c15.192 6.19 22.49 23.524 16.3 38.716C2814.456 1462.86 2803.351 1469.841 2791.632 1469.841zM3708.269 1230.943h-397.374c-16.405 0-29.704-13.299-29.704-29.704s13.299-29.704 29.704-29.704h397.374c16.405 0 29.703 13.299 29.703 29.704S3724.674 1230.943 3708.269 1230.943z"></path>
    </g>
  </g>
</svg>
